# Blender v2.78 (sub 0) OBJ File: 'tunnel.blend'
# www.blender.org
mtllib wall.mtl
o Plane
v -2.001290 2.400482 2.000000
v -2.001290 0.000483 2.000000
v -2.001290 2.400482 -2.000000
v -2.001290 0.000483 -2.000000
v 2.001290 2.400482 2.000000
v 2.001290 0.000483 2.000000
v 2.001290 2.400482 -2.000000
v 2.001290 0.000483 -2.000000
vt -0.3497 -0.0098
vt 1.3496 1.0098
vt -0.3497 1.0098
vt -0.1622 1.0098
vt 1.5371 -0.0098
vt 1.5371 1.0098
vt 1.3496 -0.0098
vt -0.1622 -0.0098
vn 1.0000 0.0000 0.0000
vn -1.0000 0.0000 0.0000
usemtl None
s off
f 2/1/1 3/2/1 1/3/1
f 7/4/2 6/5/2 5/6/2
f 2/1/1 4/7/1 3/2/1
f 7/4/2 8/8/2 6/5/2
